<?xml version="1.0" standalone="no"?>
<!DOCTYPE svg PUBLIC "-//W3C//DTD SVG 20010904//EN"
 "http://www.w3.org/TR/2001/REC-SVG-20010904/DTD/svg10.dtd">
<svg version="1.0" xmlns="http://www.w3.org/2000/svg"
 width="740.000000pt" height="740.000000pt" viewBox="0 0 740.000000 740.000000"
 preserveAspectRatio="xMidYMid meet">

<g transform="translate(0.000000,740.000000) scale(0.100000,-0.100000)"
fill="#ffffff" stroke="none">
<path d="M3605 6833 c-639 -49 -1222 -317 -1670 -767 -202 -203 -357 -415
-479 -655 -219 -431 -312 -874 -285 -1368 23 -438 137 -773 434 -1272 89 -150
111 -178 414 -531 813 -946 1398 -1543 1618 -1651 l62 -31 53 25 c223 103 825
719 1697 1736 227 264 262 311 348 455 182 304 305 575 363 799 41 155 58 274
71 472 47 749 -228 1480 -756 2011 -348 350 -747 581 -1211 700 -212 54 -510
89 -659 77z m455 -383 c252 -38 443 -99 669 -215 104 -53 254 -144 238 -145
-4 0 -24 11 -45 24 -45 28 -122 68 -122 63 0 -3 28 -23 63 -45 69 -46 97 -67
97 -73 0 -2 -21 -5 -46 -7 -26 -2 -60 -10 -76 -18 -16 -9 -43 -16 -58 -16 -17
-1 -27 -5 -23 -11 4 -7 -1 -8 -13 -3 -29 11 -8 -5 96 -74 469 -310 784 -764
904 -1300 34 -155 46 -266 46 -447 0 -558 -213 -1070 -610 -1463 -307 -305
-675 -495 -1115 -575 -140 -26 -432 -31 -592 -11 -374 48 -729 197 -1028 430
-80 62 -253 234 -325 321 -139 170 -284 433 -354 646 -138 414 -140 872 -7
1289 47 146 164 387 250 515 131 195 302 377 478 509 38 29 50 43 42 52 -10
12 -45 8 -65 -7 -7 -6 -11 -3 -11 7 0 15 70 73 155 129 49 32 50 45 0 19 -30
-16 -32 -16 -19 0 13 15 12 16 -11 7 -14 -5 -31 -5 -38 -1 -8 5 -28 3 -49 -6
l-36 -14 25 20 c88 72 331 201 485 260 33 12 69 26 80 31 18 8 18 9 -2 4 -13
-3 -33 -8 -44 -11 -14 -4 -19 -2 -15 5 4 6 0 11 -11 12 -10 0 -5 5 12 10 17 5
36 7 43 4 7 -3 11 -1 8 4 -12 18 276 83 446 100 144 15 412 6 578 -19z"/>
<path d="M4248 6393 c7 -3 16 -2 19 1 4 3 -2 6 -13 5 -11 0 -14 -3 -6 -6z"/>
<path d="M2540 5908 c0 -15 18 -17 30 -3 9 11 8 14 -9 12 -12 -1 -21 -5 -21
-9z"/>
<path d="M2415 4221 l0 -1301 263 0 262 0 0 489 0 488 343 6 c471 8 596 28
753 118 266 152 400 448 364 803 -21 210 -78 335 -214 472 -133 133 -235 180
-436 205 -57 6 -345 13 -715 16 l-620 5 0 -1301z m1205 830 c167 -55 260 -194
247 -369 -12 -160 -113 -276 -277 -320 -40 -11 -137 -16 -352 -19 l-298 -5 0
372 0 372 308 -4 c280 -5 313 -7 372 -27z"/>
<path d="M4301 3989 c-93 -10 -191 -33 -232 -54 -43 -23 -57 -65 -94 -277 -4
-24 -1 -28 18 -28 21 0 24 7 36 89 20 141 48 179 155 207 137 36 337 33 468
-6 97 -29 114 -56 139 -221 11 -67 14 -76 31 -71 23 6 23 31 -2 150 -30 146
-45 161 -195 191 -131 26 -221 31 -324 20z"/>
<path d="M3882 3611 c-9 -5 -12 -24 -10 -52 l3 -44 65 0 65 0 3 44 c4 52 -6
61 -68 61 -25 0 -51 -4 -58 -9z"/>
<path d="M4823 3613 c-8 -3 -13 -24 -13 -54 l0 -50 68 3 67 3 3 38 c4 52 -11
67 -67 66 -25 0 -52 -3 -58 -6z"/>
<path d="M4334 3590 c-28 -4 -69 -13 -90 -20 -47 -15 -154 -70 -154 -80 0 -3
14 -19 30 -35 38 -37 60 -108 60 -197 0 -65 1 -68 24 -68 15 0 26 7 29 20 5
19 14 20 177 20 163 0 172 -1 177 -20 3 -13 14 -20 29 -20 23 0 24 2 24 83 0
92 19 147 65 190 l28 25 -49 32 c-91 57 -239 87 -350 70z m275 -179 c7 -5 10
-14 7 -20 -11 -17 -416 -15 -416 2 0 8 3 17 7 20 10 10 386 8 402 -2z m6 -71
c0 -13 -29 -15 -205 -15 -188 0 -205 1 -208 18 -3 16 10 17 205 15 177 -3 208
-5 208 -18z m0 -50 c0 -13 -31 -15 -207 -18 -170 -2 -208 0 -208 11 0 8 3 17
7 21 4 3 97 5 207 4 171 -3 201 -5 201 -18z"/>
<path d="M3909 3466 c-52 -35 -72 -85 -77 -188 l-4 -88 167 0 167 0 -4 93 c-4
105 -26 154 -82 188 -46 28 -122 25 -167 -5z m147 -60 c43 -43 46 -90 8 -135
-45 -53 -116 -50 -161 8 -18 24 -15 93 5 117 44 55 100 58 148 10z"/>
<path d="M4744 3472 c-62 -39 -79 -76 -82 -184 l-4 -98 161 0 161 0 0 90 c0
100 -9 127 -59 174 -41 39 -129 48 -177 18z m119 -43 c37 -19 57 -52 57 -95 0
-56 -43 -99 -101 -99 -34 0 -46 6 -70 33 -42 46 -40 93 5 138 36 36 70 43 109
23z"/>
<path d="M4243 3208 c-2 -5 71 -8 163 -8 92 0 164 3 160 7 -10 10 -317 10
-323 1z"/>
<path d="M3830 3147 c0 -52 21 -57 218 -57 l182 0 0 40 0 40 -200 0 -200 0 0
-23z"/>
<path d="M4240 3130 l0 -40 165 0 165 0 0 40 0 40 -165 0 -165 0 0 -40z"/>
<path d="M4590 3130 l0 -40 183 0 c197 0 207 2 207 52 l0 28 -195 0 -195 0 0
-40z"/>
<path d="M3920 3020 c0 -79 19 -100 90 -100 71 0 90 21 90 100 l0 60 -90 0
-90 0 0 -60z"/>
<path d="M4720 3017 c0 -80 15 -97 88 -97 68 0 94 30 90 104 l-3 51 -87 3 -88
3 0 -64z"/>
<path d="M4245 3060 c4 -6 70 -10 166 -10 99 0 159 4 159 10 0 6 -62 10 -166
10 -107 0 -163 -3 -159 -10z"/>
</g>
</svg>
